# xmcd
#
# Track frame offsets:
#	150
#	19286
#	36852
#	50492
#	70320
#	80554
#	94239
#	109414
#	126079
#	140972
#	160029
#	175625
#	187761
#
# Disc length: 2739 seconds
#
# Revision: 0
# Processed by: cddbd v1.5.1PL0 Copyright (c) Steve Scherf et al.
# Submitted via: dBpowerAMP V4.0
#
DISCID=b30ab10d
DTITLE=The Betweeners - Matador Karma
DYEAR=2003
DGENRE=Bluegrass
TTITLE0=No New Tales
TTITLE1=360 Degrees
TTITLE2=Jack Tiller
TTITLE3=Matador Karma
TTITLE4=Beanstalk In My Bed
TTITLE5=Law Of Gravity
TTITLE6=Chief Seattle's Blues
TTITLE7=Lazarus
TTITLE8=Fishers Of Men
TTITLE9=Step So High
TTITLE10=Hotel Movies
TTITLE11=East Kentucky Water
TTITLE12=If You Bust Him
EXTD=
EXTT0=
EXTT1=
EXTT2=
EXTT3=
EXTT4=
EXTT5=
EXTT6=
EXTT7=
EXTT8=
EXTT9=
EXTT10=
EXTT11=
EXTT12=
PLAYORDER=
